<?xml version="1.0" encoding="UTF-8"?>
<svg version="1.1" xmlns="http://www.w3.org/2000/svg" width="136" height="136">
<path d="M0 0 C9.86461922 1.0065938 9.86461922 1.0065938 14 4 C16.87201399 7.62900791 19.13954046 11.5526214 21.4375 15.5625 C22.39172852 17.16254883 22.39172852 17.16254883 23.36523438 18.79492188 C28 26.65560385 28 26.65560385 28 29 C28.66 29 29.32 29 30 29 C30.41862305 27.90860718 30.41862305 27.90860718 30.84570312 26.79516602 C32.70149593 22.30130565 35.09194697 18.15463326 37.5 13.9375 C37.97953125 13.03966797 38.4590625 12.14183594 38.953125 11.21679688 C42.32363857 5.37486292 45.24137515 2.71822571 51.65039062 0.52563477 C54 0 54 0 58 0 C58.54041988 1.34646986 59.05629956 2.70279568 59.5625 4.0625 C59.85253906 4.81660156 60.14257812 5.57070313 60.44140625 6.34765625 C62.25447119 14.956545 57.38489769 20.9338268 52.9375 27.9375 C52.27427734 29.00291016 51.61105469 30.06832031 50.92773438 31.16601562 C49.29574774 33.78423879 47.65302635 36.39502887 46 39 C47.39907593 38.99045288 47.39907593 38.99045288 48.82641602 38.98071289 C52.31455775 38.97355751 55.79964144 38.99777305 59.28735352 39.04272461 C60.79152861 39.05579878 62.29586463 39.05665869 63.80004883 39.04467773 C76.3342172 38.95743294 76.3342172 38.95743294 80.58935547 41.62060547 C82.29872338 43.32997338 83.70452384 44.96406218 85 47 C83.42503275 50.86582871 81.24188073 53.38394562 78 56 C74.49487305 56.65942383 74.49487305 56.65942383 70.51171875 56.70703125 C69.80852005 56.72215256 69.10532135 56.73727386 68.3808136 56.75285339 C66.14937997 56.79561495 63.91930191 56.80455593 61.6875 56.8125 C60.16858405 56.83565371 58.64970012 56.86102089 57.13085938 56.88867188 C53.42059867 56.95140606 49.71078915 56.98383444 46 57 C46.45963135 57.71542969 46.9192627 58.43085937 47.39282227 59.16796875 C49.10054998 61.84866128 50.78824333 64.54069246 52.46362305 67.24169922 C53.19028948 68.40443009 53.92457146 69.56243954 54.66674805 70.71533203 C61.62230159 81.53923983 61.62230159 81.53923983 61.03125 86.59375 C58.95238095 93.46031746 58.95238095 93.46031746 58 96 C48.13538078 94.9934062 48.13538078 94.9934062 44 92 C41.12798601 88.37099209 38.86045954 84.4473786 36.5625 80.4375 C35.60827148 78.83745117 35.60827148 78.83745117 34.63476562 77.20507812 C30 69.34439615 30 69.34439615 30 67 C29.34 67 28.68 67 28 67 C27.72091797 67.72759521 27.44183594 68.45519043 27.15429688 69.20483398 C25.29850407 73.69869435 22.90805303 77.84536674 20.5 82.0625 C20.02046875 82.96033203 19.5409375 83.85816406 19.046875 84.78320312 C15.67636143 90.62513708 12.75862485 93.28177429 6.34960938 95.47436523 C4 96 4 96 0 96 C-0.54041988 94.65353014 -1.05629956 93.29720432 -1.5625 91.9375 C-1.85253906 91.18339844 -2.14257812 90.42929688 -2.44140625 89.65234375 C-4.25447119 81.043455 0.61510231 75.0661732 5.0625 68.0625 C5.72572266 66.99708984 6.38894531 65.93167969 7.07226562 64.83398438 C8.70425226 62.21576121 10.34697365 59.60497113 12 57 C10.60092407 57.00954712 10.60092407 57.00954712 9.17358398 57.01928711 C5.68544225 57.02644249 2.20035856 57.00222695 -1.28735352 56.95727539 C-2.79152861 56.94420122 -4.29586463 56.94334131 -5.80004883 56.95532227 C-18.3342172 57.04256706 -18.3342172 57.04256706 -22.58935547 54.37939453 C-24.29872338 52.67002662 -25.70452384 51.03593782 -27 49 C-25.42503275 45.13417129 -23.24188073 42.61605438 -20 40 C-16.49487305 39.34057617 -16.49487305 39.34057617 -12.51171875 39.29296875 C-11.80852005 39.27784744 -11.10532135 39.26272614 -10.3808136 39.24714661 C-8.14937997 39.20438505 -5.91930191 39.19544407 -3.6875 39.1875 C-2.16858405 39.16434629 -0.64970012 39.13897911 0.86914062 39.11132812 C4.57940133 39.04859394 8.28921085 39.01616556 12 39 C11.31055298 37.92685547 11.31055298 37.92685547 10.60717773 36.83203125 C8.89945002 34.15133872 7.21175667 31.45930754 5.53637695 28.75830078 C4.80971052 27.59556991 4.07542854 26.43756046 3.33325195 25.28466797 C-3.62230159 14.46076017 -3.62230159 14.46076017 -3.03125 9.40625 C-0.95238095 2.53968254 -0.95238095 2.53968254 0 0 Z " fill="#C8AA6E" transform="translate(39,20)"/>
</svg>
