<?xml version="1.0" encoding="UTF-8"?>
<svg id="Capa_1" xmlns="http://www.w3.org/2000/svg" version="1.1" viewBox="0 0 47.07 47.07">
  <!-- Generator: Adobe Illustrator 30.1.0, SVG Export Plug-In . SVG Version: 2.1.1 Build 136)  -->
  <defs>
    <style>
      .st0 {
        fill: #fff;
      }
    </style>
  </defs>
  <path class="st0" d="M23.54,4.24c6.28,0,7.03.02,9.51.14,2.3.1,3.54.49,4.37.81,1.1.43,1.88.94,2.71,1.76.82.82,1.33,1.61,1.76,2.71.32.83.71,2.08.81,4.37.11,2.48.14,3.23.14,9.51s-.02,7.03-.14,9.51c-.1,2.3-.49,3.54-.81,4.37-.43,1.1-.94,1.88-1.76,2.71-.82.82-1.61,1.33-2.71,1.76-.83.32-2.08.71-4.37.81-2.48.11-3.23.14-9.51.14s-7.03-.02-9.51-.14c-2.3-.1-3.54-.49-4.37-.81-1.1-.43-1.88-.94-2.71-1.76-.82-.82-1.33-1.61-1.76-2.71-.32-.83-.71-2.08-.81-4.37-.11-2.48-.14-3.23-.14-9.51s.02-7.03.14-9.51c.1-2.3.49-3.54.81-4.37.43-1.1.94-1.88,1.76-2.71.82-.82,1.61-1.33,2.71-1.76.83-.32,2.08-.71,4.37-.81,2.48-.11,3.23-.14,9.51-.14ZM23.54,0c-6.39,0-7.19.03-9.7.14-2.51.11-4.22.51-5.71,1.09-1.55.6-2.86,1.41-4.17,2.71-1.31,1.31-2.11,2.62-2.71,4.17-.58,1.5-.98,3.21-1.09,5.71-.11,2.51-.14,3.31-.14,9.7s.03,7.19.14,9.7c.11,2.51.51,4.22,1.09,5.71.6,1.55,1.41,2.86,2.71,4.17,1.31,1.31,2.62,2.11,4.17,2.72,1.5.58,3.21.98,5.71,1.09,2.51.11,3.31.14,9.7.14s7.19-.03,9.7-.14c2.51-.11,4.22-.51,5.71-1.09,1.55-.6,2.86-1.41,4.17-2.72,1.31-1.31,2.11-2.62,2.72-4.17.58-1.5.98-3.21,1.09-5.71.11-2.51.14-3.31.14-9.7s-.03-7.19-.14-9.7c-.11-2.51-.51-4.22-1.09-5.71-.6-1.55-1.41-2.86-2.72-4.17-1.31-1.31-2.62-2.11-4.17-2.71-1.5-.58-3.21-.98-5.71-1.09-2.51-.11-3.31-.14-9.7-.14ZM23.54,11.45c-6.68,0-12.09,5.41-12.09,12.09s5.41,12.09,12.09,12.09,12.09-5.41,12.09-12.09-5.41-12.09-12.09-12.09ZM23.54,31.38c-4.33,0-7.85-3.51-7.85-7.85s3.51-7.85,7.85-7.85,7.85,3.51,7.85,7.85-3.51,7.85-7.85,7.85ZM36.1,8.15c-1.56,0-2.82,1.26-2.82,2.82s1.26,2.82,2.82,2.82,2.82-1.26,2.82-2.82-1.26-2.82-2.82-2.82Z"/>
</svg>