<svg id="Capa_1" data-name="Capa 1" xmlns="http://www.w3.org/2000/svg" viewBox="0 0 193.07 99.3"><defs><style>.cls-1{fill:#fff;}</style></defs><path class="cls-1" d="M109.59,54.9c0,3.67-2.19,7.3-9.07,7.3H85.13V35.74H100c5.44,0,8.66,2.3,8.66,6.76a5.94,5.94,0,0,1-3.71,5.82A6.57,6.57,0,0,1,109.59,54.9ZM93.37,46.13h4.12c1.59,0,2.54-.64,2.54-1.85s-.91-1.85-2.54-1.85H93.37Zm7.68,7.41c0-1-.65-2-2.61-2H93.37v3.93h5.07C100.4,55.51,101.05,54.52,101.05,53.54Z"/><path class="cls-1" d="M134.31,42.73H127V62.2h-8.25V42.73h-7.29v-7h22.83Z"/><path class="cls-1" d="M164.66,49c0,7.52-6.38,13.61-14.21,13.61S136.2,56.49,136.2,49s6.39-13.61,14.25-13.61S164.66,41.44,164.66,49Zm-19.88,0a5.67,5.67,0,1,0,11.34,0,5.67,5.67,0,1,0-11.34,0Z"/><path class="cls-1" d="M185.65,64.73,182.91,62A10.35,10.35,0,0,1,178,63.23a9.48,9.48,0,1,1,9.89-9.47,9.16,9.16,0,0,1-1.84,5.5l2.66,2.65Zm-6.93-6.92L176.93,56,180,53.2,181.78,55a5,5,0,0,0,.15-1.23,3.95,3.95,0,1,0-3.94,4.1C178.25,57.86,178.49,57.83,178.72,57.81Z"/><path class="cls-1" d="M97.09,68.84l-.86.6a4.35,4.35,0,0,0-7.68,2.8,4.32,4.32,0,0,0,4.35,4.34A4.37,4.37,0,0,0,96.23,75l.86.61a5.36,5.36,0,1,1,0-6.79Z"/><path class="cls-1" d="M108.79,77.45h-1.07V72.68h-6.93v4.77H99.72V67h1.07v4.69h6.93V67h1.07Z"/><path class="cls-1" d="M119.47,74.69h-5.94l-1.24,2.76h-1.17L115.79,67h1.4l4.67,10.42H120.7Zm-.42-.92-2.56-5.68L114,73.77Z"/><path class="cls-1" d="M125.28,76.48h5.93v1h-7V67h1.07Z"/><path class="cls-1" d="M134.62,76.48h5.93v1h-7V67h1.07Z"/><path class="cls-1" d="M150.6,68H144v3.74h6.11v.94H144v3.83h6.78v1h-7.86V67h7.71Z"/><path class="cls-1" d="M162.42,67V77.45h-1.19l-6.82-9v9h-1.06V67h1.18L161.36,76V67Z"/><path class="cls-1" d="M174.7,68.29,174,69a4.59,4.59,0,0,0-3.09-1.18,4.37,4.37,0,0,0-4.42,4.38,4.33,4.33,0,0,0,4.38,4.34,5,5,0,0,0,3.27-1.1V73h-3.23V72h4.26v4a6.47,6.47,0,0,1-4.3,1.6,5.36,5.36,0,1,1,0-10.72A5.72,5.72,0,0,1,174.7,68.29Z"/><path class="cls-1" d="M186.25,68h-6.64v3.74h6.12v.94h-6.12v3.83h6.79v1h-7.86V67h7.71Z"/><path class="cls-1" d="M36.59,62.64A7,7,0,0,1,39,57.57c2.9-2.37,7.67-4.32,11-6.89A20.74,20.74,0,0,0,53.61,47L50.43,51.4c-.1.63-.22,1.28-.37,2a37.66,37.66,0,0,1-1.1,4c.75-.52,1.74-1.24,2.85-2.16a43.55,43.55,0,0,0,5.37-5.31,23.46,23.46,0,0,0,3.63-5.11,20.51,20.51,0,0,0,1.69-5,12.58,12.58,0,0,0-.15-5.46c-.14-.63-.33-1.24-.47-1.88A11.54,11.54,0,0,1,62,27.3a10.28,10.28,0,0,0-1.05,3.43c-.12,1.34.27,2.68.28,4a2,2,0,0,1-.46,1.48,1.22,1.22,0,0,1-1.5,0,3.1,3.1,0,0,1-1-1.37,8,8,0,0,1-.44-4.63,30.93,30.93,0,0,1,1.5-4.17,16,16,0,0,0,.21-10,12.55,12.55,0,0,1-.86,7.6c-.63,1.42-1.52,2.68-2.25,4a9.17,9.17,0,0,0-1.24,5.4c.22,1.93,1.09,3.77.95,5.75a.87.87,0,0,1-.1.42.72.72,0,0,1-.5.29h0a3.38,3.38,0,0,1-3.19-1.45A8.06,8.06,0,0,1,51,34.47a16.48,16.48,0,0,0,.77,1.78,4.17,4.17,0,0,0,.88,1.39,3.61,3.61,0,0,0,2.53.66,19.19,19.19,0,0,0-6.44-10,22.68,22.68,0,0,0-9.11-4.33.64.64,0,0,1-.35-.19c-.38-.4-.13-1.23-.16-1.24S38.23,25,37.4,27.77c1.34-6.49,2.9-15,2.94-15.32a1.1,1.1,0,0,0,0-.47,1.05,1.05,0,0,0-.17-.31Q37,7.82,33.92,3.92c-.1-.13-.18-.19-.25-.19V76l3.8-5.15L37,69.22A22.68,22.68,0,0,1,36.59,62.64Z"/><path class="cls-1" d="M56.14,54.9c.71-1.26.93-1.3,2.17-3.14a45.12,45.12,0,0,0,2.38-3.91A25.51,25.51,0,0,0,63,41.42a27.29,27.29,0,0,1-2.32,5.3,27,27,0,0,1-5.15,6.33c-.86.84-1.74,1.67-2.63,2.52s-1.74,1.57-2.36,2.1c-2,1.71-3.83,3.52-5.83,5.17a10.19,10.19,0,0,0-2.91,3.29,9.78,9.78,0,0,0-.92,2.78c-.6,3.5-.91,7-1.35,10.57s-.88,7.13-1.31,10.69c-.22,1.76-.43,3.53-.64,5.29l.13.1a2,2,0,0,1,.11-.26L51.87,77.66a1,1,0,0,0,.21-.77,54.33,54.33,0,0,1-.2-6.38,45.82,45.82,0,0,1,.82-7.73c0-.2.07-.41.11-.62-.17,1.72-.28,3.53-.3,5.44,0,1.36,0,2.66.09,3.91a6.36,6.36,0,0,1,2-2.52c1.26-.87,1.9-.5,2.83-1.36a5.83,5.83,0,0,0,1.42-4.14,8.11,8.11,0,0,0-.53-2.71c-.24-.61-.41-.81-.6-1.36a5.75,5.75,0,0,1-.2-2.59,6.56,6.56,0,0,0-.24,3.11,15,15,0,0,1,.33,1.52,3.57,3.57,0,0,1-.45,2.61,2,2,0,0,1-2.5.62c-.62-.43-.7-1.34-.77-2.17a8.51,8.51,0,0,1,.41-3.2A18.63,18.63,0,0,1,56.14,54.9Z"/><path class="cls-1" d="M30.76,62.64a7,7,0,0,0-2.38-5.07c-2.91-2.37-7.67-4.32-11-6.89A20.39,20.39,0,0,1,13.73,47c1.06,1.46,2.13,2.91,3.19,4.36q.15.95.36,2a37.58,37.58,0,0,0,1.11,4c-.76-.52-1.74-1.24-2.85-2.16a42.82,42.82,0,0,1-5.37-5.31,23.13,23.13,0,0,1-3.63-5.11,20.61,20.61,0,0,1-1.7-5A12.9,12.9,0,0,1,5,34.31c.15-.63.34-1.24.47-1.88A11.54,11.54,0,0,0,5.4,27.3a10.51,10.51,0,0,1,1,3.43c.12,1.34-.27,2.68-.28,4a2,2,0,0,0,.45,1.48,1.23,1.23,0,0,0,1.51,0,3.1,3.1,0,0,0,1-1.37,8,8,0,0,0,.44-4.63A29.67,29.67,0,0,0,8,26.11a16.06,16.06,0,0,1-.2-10,12.48,12.48,0,0,0,.86,7.6c.63,1.42,1.52,2.68,2.25,4a9.25,9.25,0,0,1,1.24,5.4c-.22,1.93-1.09,3.77-1,5.75a1,1,0,0,0,.1.42.74.74,0,0,0,.51.29h0A3.38,3.38,0,0,0,15,38.11a8,8,0,0,0,1.35-3.64c-.22.65-.5,1.16-.77,1.78a4.19,4.19,0,0,1-.89,1.39,3.6,3.6,0,0,1-2.53.66,19.25,19.25,0,0,1,6.44-10,22.72,22.72,0,0,1,9.12-4.33.7.7,0,0,0,.35-.19c.37-.4.13-1.23.16-1.24s.85,2.49,1.67,5.26c-1.33-6.49-2.9-15-2.94-15.32A1.2,1.2,0,0,1,27,12a.86.86,0,0,1,.17-.31q3.12-3.86,6.22-7.75c.1-.13.17-.19.24-.19V76l-3.8-5.15.44-1.6A23,23,0,0,0,30.76,62.64Z"/><path class="cls-1" d="M11.21,54.9c-.72-1.26-.93-1.3-2.17-3.14a40.47,40.47,0,0,1-2.38-3.91,25.51,25.51,0,0,1-2.29-6.43,26.68,26.68,0,0,0,2.32,5.3,27,27,0,0,0,5.14,6.33l2.63,2.52c.94.86,1.75,1.57,2.37,2.1,2,1.71,3.83,3.52,5.82,5.17a10,10,0,0,1,2.91,3.29,9.19,9.19,0,0,1,.92,2.78c.61,3.5.91,7,1.36,10.57s.88,7.13,1.31,10.69c.21,1.76.42,3.53.64,5.29l-.14.1a1.17,1.17,0,0,0-.1-.26L15.47,77.66a1,1,0,0,1-.2-.77,54.33,54.33,0,0,0,.19-6.38,45.82,45.82,0,0,0-.82-7.73c0-.2-.07-.41-.11-.62.18,1.72.29,3.53.3,5.44,0,1.36,0,2.66-.08,3.91A6.39,6.39,0,0,0,12.69,69c-1.25-.87-1.9-.5-2.82-1.36-1.45-1.35-1.43-3.73-1.43-4.14A8,8,0,0,1,9,60.78c.23-.61.41-.81.59-1.36a5.77,5.77,0,0,0,.21-2.59A6.69,6.69,0,0,1,10,59.94a12.66,12.66,0,0,0-.33,1.52,3.57,3.57,0,0,0,.45,2.61,2,2,0,0,0,2.49.62c.63-.43.71-1.34.78-2.17a8.79,8.79,0,0,0-.42-3.2A18.5,18.5,0,0,0,11.21,54.9Z"/><path class="cls-1" d="M12.76,30A16,16,0,0,0,12,27.57,31.89,31.89,0,0,0,9.9,23.82a10.69,10.69,0,0,1-1.36-4.9c0-2.09.86-2.6,1.56-6.21A24.66,24.66,0,0,0,10.49,10a11.6,11.6,0,0,1,0,3c-.31,2.42-1.24,3.59-1.07,6.11a9.74,9.74,0,0,0,.14,1.09c.44,2.61,1.36,3.82,2.17,5.93A18,18,0,0,1,12.76,30Z"/><path class="cls-1" d="M54.59,30a15.72,15.72,0,0,1,.77-2.39,31.89,31.89,0,0,1,2.08-3.75,10.55,10.55,0,0,0,1.37-4.9c0-2.09-.86-2.6-1.56-6.21-.23-1.16-.34-2.12-.4-2.73a12.6,12.6,0,0,0,0,3c.31,2.42,1.25,3.59,1.07,6.11a9.74,9.74,0,0,1-.14,1.09c-.43,2.61-1.36,3.82-2.17,5.93A18.14,18.14,0,0,0,54.59,30Z"/></svg>