<?xml version="1.0" encoding="UTF-8"?>
<svg id="Capa_1" xmlns="http://www.w3.org/2000/svg" version="1.1" viewBox="0 0 40.16 47.07">
  <!-- Generator: Adobe Illustrator 30.1.0, SVG Export Plug-In . SVG Version: 2.1.1 Build 136)  -->
  <defs>
    <style>
      .st0 {
        fill: #fff;
        fill-rule: evenodd;
      }
    </style>
  </defs>
  <path class="st0" d="M29.07,0v.04c0,.72.21,11.08,11.08,11.72,0,9.64,0,0,0,8-.82.05-7.16-.41-11.1-3.93v15.58c.09,7.06-3.84,13.98-11.2,15.37-2.06.39-3.92.43-7.03-.25C-7.11,41.18-1.14,14.57,16.87,17.42c0,8.59,0,0,0,8.59-7.44-1.09-9.93,5.1-7.95,9.53,1.8,4.04,9.21,4.91,11.79-.78.29-1.11.44-2.38.44-3.81V0h7.92Z"/>
</svg>