<?xml version="1.0" encoding="UTF-8"?>
<svg id="Capa_1" xmlns="http://www.w3.org/2000/svg" version="1.1" viewBox="0 0 67.19 47.07">
  <!-- Generator: Adobe Illustrator 30.1.0, SVG Export Plug-In . SVG Version: 2.1.1 Build 136)  -->
  <defs>
    <style>
      .st0 {
        fill: #fff;
      }
    </style>
  </defs>
  <path class="st0" d="M65.76,7.37c-.78-2.9-2.99-5.16-5.93-5.94-5.21-1.43-26.27-1.43-26.27-1.43,0,0-21,0-26.21,1.43-2.89.78-5.15,3.04-5.99,5.94C0,12.56,0,23.51,0,23.51c0,0,0,10.94,1.37,16.2.84,2.84,3.1,5.15,5.99,5.93,5.21,1.43,26.21,1.43,26.21,1.43,0,0,21.06,0,26.27-1.43,2.93-.78,5.15-3.08,5.93-5.93,1.43-5.27,1.43-16.2,1.43-16.2,0,0,0-10.95-1.43-16.14ZM26.9,33.62V13.45l17.42,10.06-17.42,10.11Z"/>
</svg>