<svg xmlns="http://www.w3.org/2000/svg" version="1.1" xmlns:xlink="http://www.w3.org/1999/xlink" width="32" height="32"><svg xmlns="http://www.w3.org/2000/svg" version="1.1" xmlns:xlink="http://www.w3.org/1999/xlink" width="32" height="32"><svg width="32" height="32" viewBox="0 0 32 32" fill="none" xmlns="http://www.w3.org/2000/svg">
<path d="M17.332 19.7466C17.3486 19.4392 17.475 19.1372 17.7034 18.8595C17.9318 18.5818 18.2571 18.3345 18.659 18.133C20.2557 17.3788 22.882 16.7582 24.7155 15.9403C25.4597 15.5992 26.1274 15.2058 26.7031 14.7691L24.9522 16.1694C24.8972 16.3699 24.8311 16.5768 24.7485 16.8059C24.5872 17.2364 24.385 17.6613 24.1428 18.0789C24.5558 17.9134 25.1009 17.6843 25.712 17.3915C26.7804 16.8787 27.7697 16.3133 28.6687 15.7016C29.4578 15.2136 30.13 14.6666 30.6674 14.0753C31.0948 13.5703 31.4076 13.0354 31.5979 12.4841C31.7908 11.9083 31.7626 11.3151 31.5153 10.7464C31.4382 10.5459 31.3336 10.3518 31.2565 10.1481C31.062 9.6028 31.0846 9.03908 31.3226 8.49956C31.0207 8.84104 30.825 9.21053 30.7444 9.59117C30.6784 10.0176 30.8931 10.4441 30.8986 10.8642C30.9127 10.9485 30.8976 11.0336 30.8541 11.1144C30.8106 11.1953 30.7396 11.2704 30.6453 11.3352C30.5273 11.3883 30.382 11.4172 30.2324 11.4172C30.0828 11.4172 29.9375 11.3883 29.8194 11.3352C29.5694 11.2223 29.3787 11.0713 29.2689 10.8992C28.9374 10.4327 28.8531 9.91987 29.0266 9.42567C29.2466 8.97246 29.5226 8.52895 29.8525 8.09857C30.4784 7.07213 30.519 5.95678 29.9681 4.91606C30.2495 5.73113 30.084 6.57665 29.4946 7.33477C29.1477 7.78668 28.6577 8.18768 28.2558 8.60777C27.7271 9.12623 27.4886 9.72649 27.573 10.3263C27.6942 10.9406 28.1732 11.5261 28.0961 12.1563C28.0975 12.2028 28.0785 12.2488 28.041 12.2899C28.0087 12.3155 27.9675 12.3369 27.9201 12.3527C27.8727 12.3686 27.8202 12.3787 27.7657 12.3822C27.428 12.4054 27.0857 12.3747 26.776 12.2933C26.4664 12.212 26.2012 12.0831 26.0094 11.9208C25.607 11.581 25.352 11.1902 25.2661 10.7814C25.388 10.9749 25.5296 11.1641 25.69 11.3479C25.7991 11.5125 25.9638 11.6629 26.1745 11.7903C26.5771 11.9584 27.0741 12.0334 27.5675 12.0003C26.9986 10.7492 25.757 9.63481 24.0217 8.81782C22.5499 8.14667 20.8356 7.67568 19.0058 7.43979C18.9321 7.43199 18.8646 7.41081 18.8131 7.37932C18.6039 7.25202 18.7415 6.98787 18.725 6.98469C18.7085 6.98151 18.235 7.76759 17.778 8.64914C18.5158 6.58369 19.3747 3.87538 19.3968 3.77354C19.4154 3.72426 19.4154 3.67324 19.3968 3.62396C19.3754 3.58825 19.3438 3.55489 19.3031 3.5253C18.1396 2.70846 16.9925 1.88631 15.862 1.05886C15.8069 1.01748 15.7628 0.998388 15.7243 0.998388V23.9984L17.8166 22.3594L17.5578 21.8406C17.3065 21.1527 17.2304 20.4472 17.332 19.7466Z" fill="white"></path>
<path d="M27.9462 17.4801C28.3372 17.0612 28.4584 17.0479 29.1413 16.4361C29.6144 16.0165 30.0519 15.5826 30.4521 15.1362C31.033 14.4612 31.4609 13.7422 31.7243 12.9984C31.403 13.6114 30.9747 14.2021 30.4466 14.7605C29.6832 15.5447 28.7268 16.2543 27.6102 16.865C27.1366 17.1443 26.6519 17.4203 26.1618 17.7029C25.6716 17.9855 25.2035 18.2248 24.862 18.401C23.7605 18.9696 22.7526 19.5713 21.6511 20.1199C20.9915 20.4099 20.4446 20.7831 20.0485 21.2138C19.8037 21.5047 19.6329 21.8163 19.5418 22.138C19.2113 23.3017 19.0406 24.4653 18.7983 25.6523C18.5559 26.8392 18.3136 28.0228 18.0768 29.2064C17.9556 29.7915 17.84 30.38 17.7243 30.9651L17.7959 30.9984C17.8127 30.9687 17.8329 30.9399 17.8565 30.9119L25.5945 25.0472C25.6418 25.0116 25.6766 24.9705 25.6965 24.9264C25.7164 24.8824 25.721 24.8363 25.7101 24.7911C25.6046 24.086 25.5678 23.3777 25.6 22.67C25.6297 21.8071 25.7807 20.9474 26.0516 20.1C26.0516 20.0335 26.0902 19.9637 26.1122 19.8938C26.0186 20.4657 25.958 21.0675 25.947 21.7025C25.947 22.1546 25.947 22.5869 25.9965 23.0025C26.2387 22.6708 26.618 22.3823 27.098 22.1646C27.792 21.8754 28.1444 21.9984 28.6566 21.7125C29.2036 21.3324 29.484 20.8387 29.4387 20.336C29.4274 20.0278 29.3287 19.7231 29.1468 19.435C29.0146 19.2322 28.921 19.1657 28.8164 18.9829C28.6713 18.7047 28.6336 18.4101 28.7062 18.1218C28.5251 18.455 28.4797 18.8097 28.574 19.1558C28.649 19.3222 28.7097 19.4909 28.7558 19.6611C28.8605 19.9588 28.7718 20.2695 28.5079 20.5289C28.3554 20.6556 28.1337 20.7458 27.8818 20.7835C27.6299 20.8213 27.364 20.8041 27.1311 20.735C26.7896 20.592 26.7455 20.2895 26.707 20.0135C26.6692 19.6535 26.7458 19.2923 26.9328 18.9496C27.1645 18.4355 27.5051 17.9416 27.9462 17.4801Z" fill="white"></path>
<path d="M14.2403 19.7454C14.2267 19.4387 14.1103 19.137 13.8986 18.8593C13.6868 18.5816 13.3842 18.3338 13.0096 18.1314C11.5049 17.3769 9.0436 16.7562 7.32171 15.938C6.61421 15.5986 5.97997 15.2049 5.43436 14.7666C5.98247 15.2313 6.53575 15.6929 7.08385 16.1545C7.13556 16.3561 7.19761 16.5684 7.27 16.7912C7.42307 17.2218 7.61468 17.6469 7.84397 18.0645C7.45098 17.899 6.94424 17.6698 6.37028 17.3769C5.36564 16.8649 4.43645 16.2993 3.59355 15.6866C2.85088 15.1993 2.21942 14.652 1.71654 14.0598C1.31387 13.5547 1.01843 13.0197 0.837498 12.4681C0.66248 11.8907 0.690693 11.2969 0.920231 10.7268C0.997793 10.5263 1.09604 10.3321 1.16326 10.1284C1.35039 9.58922 1.33802 9.03107 1.12706 8.49527C1.39938 8.83841 1.57427 9.20771 1.64415 9.58718C1.7062 10.0138 1.50453 10.4403 1.49936 10.8605C1.48539 10.9446 1.49877 11.0296 1.53872 11.1105C1.57867 11.1914 1.6444 11.2666 1.73205 11.3317C1.84368 11.3851 1.98105 11.4141 2.12245 11.4141C2.26385 11.4141 2.40122 11.3851 2.51285 11.3317C2.74771 11.2187 2.92677 11.0677 3.02993 10.8956C3.34118 10.429 3.42037 9.91597 3.25744 9.42164C3.04796 8.97527 2.78526 8.53902 2.47148 8.11645C1.88748 7.08915 1.85125 5.97392 2.36806 4.93306C2.10134 5.7483 2.25688 6.59451 2.81275 7.35244C3.13851 7.80448 3.59872 8.20559 3.97619 8.62579C4.47019 9.14501 4.69396 9.74494 4.61737 10.3448C4.50361 10.9592 4.05375 11.545 4.10029 12.1753C4.10151 12.2216 4.11915 12.2673 4.152 12.309C4.18341 12.3346 4.22301 12.356 4.26836 12.3719C4.31371 12.3878 4.36385 12.3978 4.41571 12.4013C4.73752 12.4272 5.06471 12.3975 5.36061 12.3154C5.65651 12.2333 5.90944 12.1021 6.09106 11.9365C6.47476 11.5914 6.7145 11.1934 6.78912 10.7778C6.67536 10.9847 6.53058 11.147 6.39096 11.3444C6.28673 11.5092 6.1303 11.6596 5.93076 11.7869C5.55287 11.9554 5.08597 12.0304 4.62254 11.997C5.15887 10.7461 6.32453 9.63172 7.95255 8.81361C9.33668 8.14223 10.9484 7.67113 12.6683 7.4352C12.7369 7.42626 12.7998 7.40524 12.8493 7.37472C13.0406 7.24739 12.9165 6.98316 12.9321 6.97998C12.9476 6.9768 13.3716 7.77264 13.7956 8.65444C13.1079 6.58842 12.296 3.87936 12.2754 3.77749C12.2654 3.72622 12.2724 3.67424 12.296 3.62469C12.3139 3.5884 12.3439 3.55479 12.384 3.526C13.4595 2.70681 14.5316 1.88443 15.6002 1.05887C15.6519 1.01749 15.6881 0.998388 15.7243 0.998388V23.9984L13.7594 22.3589L13.9869 21.8496C14.2359 21.1594 14.3213 20.4506 14.2403 19.7454Z" fill="white"></path>
<path d="M4.22234 17.4801C3.85412 17.0612 3.74673 17.0479 3.11258 16.4361C2.66946 16.0181 2.2631 15.5841 1.89543 15.1362C1.35951 14.4609 0.965612 13.7419 0.724304 12.9984C1.02037 13.612 1.4182 14.2028 1.91077 14.7605C2.61805 15.5445 3.50437 16.2541 4.53941 16.865L5.88441 17.7029C6.36514 17.9888 6.77938 18.2248 7.09645 18.401C8.11927 18.9696 9.05515 19.5713 10.0728 20.1199C10.6875 20.4083 11.1958 20.782 11.561 21.2138C11.7929 21.5035 11.9517 21.8156 12.0315 22.138C12.3435 23.3017 12.4969 24.4653 12.7271 25.6523C12.9572 26.8392 13.1771 28.0228 13.397 29.2064C13.5044 29.7915 13.6118 30.38 13.7243 30.9651L13.6527 30.9984C13.641 30.9684 13.6238 30.9393 13.6016 30.9119L6.40094 25.0472C6.35785 25.0113 6.32654 24.9701 6.30895 24.926C6.29136 24.882 6.28785 24.8361 6.29866 24.7911C6.39496 24.0859 6.4274 23.3777 6.39582 22.67C6.36827 21.8071 6.22798 20.9474 5.97647 20.1C5.97647 20.0335 5.94067 19.9637 5.92021 19.8938C6.01227 20.4657 6.06852 21.0675 6.07364 21.7025C6.07364 22.1546 6.07364 22.5869 6.03272 23.0025C5.79794 22.67 5.43506 22.3825 4.97922 22.1679C4.33996 21.8787 4.00755 22.0017 3.53705 21.7158C2.79551 21.267 2.80574 20.4757 2.80574 20.3394C2.81938 20.0294 2.9163 19.7233 3.09212 19.435C3.20975 19.2322 3.3018 19.1657 3.39386 18.9829C3.5299 18.7049 3.56663 18.4104 3.50125 18.1218C3.66007 18.4564 3.69512 18.8107 3.60353 19.1558C3.5314 19.3218 3.47504 19.4906 3.43477 19.6611C3.3375 19.9588 3.41988 20.2695 3.6649 20.5289C3.80628 20.6548 4.01128 20.7445 4.24405 20.7822C4.47683 20.8199 4.72256 20.8032 4.93831 20.735C5.2605 20.592 5.30141 20.2895 5.33721 20.0135C5.36723 19.6533 5.2944 19.2926 5.12242 18.9496C4.92093 18.4366 4.6184 17.9427 4.22234 17.4801Z" fill="white"></path>
<path d="M4.7243 9.99839C4.63502 9.70827 4.51458 9.42387 4.36411 9.14789C4.07271 8.69436 3.7402 8.25586 3.36885 7.83539C2.97033 7.31033 2.74923 6.72202 2.7243 6.12039C2.7243 5.38889 3.13189 5.21039 3.46364 3.94689C3.54899 3.63349 3.6107 3.31684 3.64847 2.99839C3.71002 3.34691 3.71002 3.69986 3.64847 4.04839C3.50156 4.89539 3.0608 5.30489 3.14137 6.18689C3.15374 6.31488 3.1759 6.44225 3.20772 6.56839C3.41625 7.48189 3.85227 7.90539 4.23615 8.64389C4.46659 9.08057 4.63032 9.53488 4.7243 9.99839Z" fill="white"></path>
<path d="M27.7243 9.99839C27.8155 9.71253 27.9376 9.43252 28.0892 9.16105C28.3776 8.70726 28.7069 8.26833 29.075 7.84724C29.4777 7.32273 29.7006 6.73335 29.7243 6.13052C29.7243 5.39829 29.3167 5.21961 28.985 3.95484C28.876 3.54844 28.8238 3.2121 28.7954 2.99839C28.7388 3.34749 28.7388 3.70034 28.7954 4.04944C28.9423 4.89729 29.3878 5.3072 29.3025 6.19008C29.2901 6.3182 29.268 6.44569 29.2362 6.57196C29.0324 7.48638 28.5916 7.9103 28.2077 8.64954C27.9801 9.08468 27.818 9.53702 27.7243 9.99839Z" fill="white"></path>
</svg></svg><style>@media (prefers-color-scheme: light) { :root { filter: none; } }
@media (prefers-color-scheme: dark) { :root { filter: none; } }
</style></svg>